<svg width="179" height="40" viewBox="0 0 179 40" fill="none" xmlns="http://www.w3.org/2000/svg">
<path d="M14.0611 5.56469C13.4255 5.6548 12.3409 5.87708 12.1427 5.94918C12.0378 5.99123 12.0611 6.02127 12.3409 6.16545C13.3555 6.68841 14.1777 7.58384 14.6149 8.64749C14.7898 9.06802 14.988 9.81326 15.0521 10.2942L15.0929 10.5705L16.3232 10.5945C17.0055 10.6066 17.5654 10.6126 17.5709 10.6126C17.5826 10.6066 17.6059 9.48284 17.6292 8.1065L17.6642 5.61245L17.4952 5.5704C17.1285 5.48059 14.6618 5.47458 14.0611 5.56469ZM18.872 7.80012C18.872 8.88779 18.8545 9.99349 18.8312 10.2641C18.8021 10.6606 18.8137 10.7628 18.8779 10.7868C18.9245 10.7988 19.2509 10.8529 19.601 10.913C19.9566 10.967 20.5281 11.0812 20.8721 11.1653C21.2218 11.2494 21.5136 11.3034 21.5194 11.2974C21.5311 11.2854 21.5952 11.0812 21.671 10.8529C22.0149 9.72315 22.773 8.64749 23.6127 8.08848L23.7817 7.98034L23.3792 7.71601C22.8485 7.36156 21.6532 6.74248 20.9767 6.46613C20.4287 6.24986 19.1107 5.83503 18.9534 5.83503C18.8837 5.83503 18.872 6.14142 18.872 7.80012ZM9.21556 7.12096C6.24176 8.72559 3.90917 11.3338 2.60313 14.5067C2.46905 14.8311 2.36996 15.1077 2.38161 15.1198C2.39327 15.1318 2.58564 14.9936 2.80715 14.8074C5.16888 12.8483 9.13978 11.2857 13.0291 10.7811L13.8629 10.6729L13.828 10.4326C13.5482 8.63577 12.5569 7.43395 10.9416 6.95905C10.0261 6.68841 10.0145 6.68841 9.21556 7.12096ZM24.4754 9.02596C23.7523 9.4525 23.0411 10.4441 22.8135 11.3335C22.7669 11.5257 22.7319 11.6939 22.7377 11.6939C22.7435 11.6999 22.9884 11.7961 23.2743 11.9042C25.3676 12.7035 27.5661 14.0735 29.0237 15.4919C29.2452 15.7082 29.4259 15.8584 29.4259 15.8224C29.4259 15.6481 28.9421 14.416 28.5746 13.647C28.0846 12.6374 27.4201 11.5738 26.7552 10.7565C26.2478 10.1374 24.9651 8.83943 24.8543 8.83943C24.8196 8.83973 24.6506 8.92384 24.4754 9.02596ZM15.2215 11.8925C15.1806 11.9165 15.1107 12.1748 15.0582 12.4635C14.7901 13.936 13.997 15.6064 12.6499 17.5414C11.7463 18.8334 10.5099 20.3899 8.37585 22.908C5.70517 26.0509 4.71973 27.4993 4.59149 28.4608C4.56817 28.6411 4.49822 28.8453 4.44576 28.9057C4.34083 29.0198 4.35249 29.0379 4.69059 29.4647C6.23593 31.4175 8.25344 32.9497 10.4691 33.8692C11.4429 34.2717 12.5216 34.5784 12.6091 34.4822C12.953 34.1098 14.3876 31.2613 14.8772 29.963C16.4284 25.9007 17.2623 20.5521 17.5071 13.1304L17.5479 11.9225L17.0055 11.8865C16.2888 11.8324 15.3034 11.8324 15.2215 11.8925ZM13.099 12.0607C8.49244 12.7038 4.11349 14.729 2.39327 17.0248C2.22422 17.2471 2.06683 17.3852 1.93859 17.4333C1.70542 17.5114 1.71125 17.5054 1.57718 18.515C1.4431 19.5606 1.48974 21.5437 1.67044 22.5953C1.83949 23.5809 2.14291 24.6986 2.46352 25.5459C2.72583 26.2251 3.41398 27.6492 3.47227 27.6492C3.49559 27.6432 3.61217 27.4089 3.74042 27.1202C4.23037 26.0205 5.16305 24.7523 7.61805 21.8498C11.0349 17.8058 12.3992 15.9131 13.2447 14.0378C13.6703 13.1123 13.9737 11.9586 13.793 11.9706C13.7464 11.9766 13.4374 12.0126 13.099 12.0607Z" fill="#B4D9A2"/>
<path d="M19.2405 12.1935C19.2231 12.3298 19.194 12.9349 19.1765 13.5396C19.0892 16.3686 18.8213 19.6423 18.4717 22.1096C17.8134 26.7831 16.6195 30.5136 14.7616 33.7339L14.3889 34.3864L14.5403 34.4397C14.6218 34.4694 15.3849 34.4931 16.2352 34.499C17.6099 34.5049 17.8603 34.4871 18.5244 34.3686C21.0348 33.9061 23.2363 32.9035 25.135 31.3499C25.735 30.8577 25.8107 30.7332 26.0203 29.9029C26.393 28.426 26.259 26.7597 25.6008 24.6896C25.2803 23.6814 24.9833 22.9162 24.1853 21.0125C22.4729 16.9381 21.9547 15.2003 21.8438 13.172L21.8089 12.4721L21.5993 12.4128C21.3664 12.3417 19.817 12.0274 19.4851 11.98L19.2697 11.9444L19.2405 12.1935ZM23.1251 13.4507C23.2299 15.0758 23.76 16.7599 25.3618 20.5974C26.9519 24.3931 27.3886 25.9112 27.4585 27.9042C27.4759 28.45 27.5167 28.8828 27.5458 28.865C27.6623 28.7939 28.6524 27.1925 28.9555 26.5934C29.602 25.3065 30.0737 23.8592 30.3299 22.3708C30.4813 21.4811 30.5511 19.5536 30.458 18.7114L30.3939 18.1597L29.823 17.5013C28.4602 15.9299 26.5382 14.447 24.7035 13.5574C24.1501 13.2906 23.1949 12.8871 23.1134 12.8871C23.1021 12.8871 23.1079 13.1424 23.1251 13.4507Z" fill="#62AF3B"/>
<path d="M52.976 13.84C51.824 16.368 51.248 19.096 51.248 22.024C50.816 22.328 50.28 22.48 49.64 22.48C49.016 22.48 48.504 22.328 48.104 22.024C47.704 21.736 47.464 21.44 47.384 21.136C46.984 21.552 46.456 21.88 45.8 22.12C45.16 22.36 44.496 22.48 43.808 22.48C43.12 22.48 42.472 22.368 41.864 22.144C41.272 21.92 40.744 21.56 40.28 21.064C39.256 19.976 38.744 18.4 38.744 16.336C38.744 13.136 39.6 10.576 41.312 8.656C43.072 6.672 45.512 5.68 48.632 5.68C50.792 5.68 52.256 6.24 53.024 7.36C53.264 7.712 53.384 8.104 53.384 8.536C53.384 8.952 53.288 9.344 53.096 9.712C52.92 10.064 52.688 10.384 52.4 10.672C51.712 11.312 50.944 11.632 50.096 11.632C49.76 11.632 49.432 11.576 49.112 11.464C49.176 10.984 49.208 10.464 49.208 9.904C49.208 9.344 49.184 8.936 49.136 8.68C49.104 8.424 49.04 8.192 48.944 7.984C48.736 7.552 48.4 7.336 47.936 7.336C47.488 7.336 47.008 7.584 46.496 8.08C46 8.56 45.552 9.2 45.152 10C44.272 11.792 43.832 13.768 43.832 15.928C43.832 16.92 44.024 17.768 44.408 18.472C44.824 19.24 45.4 19.624 46.136 19.624C46.392 19.624 46.632 19.56 46.856 19.432C47.096 19.304 47.264 19.192 47.36 19.096L48.128 14.272L52.976 13.84ZM55.19 21.28C54.822 20.864 54.55 20.328 54.374 19.672C54.214 19.016 54.134 18.152 54.134 17.08C54.134 16.008 54.318 14.984 54.686 14.008C55.054 13.032 55.574 12.192 56.246 11.488C57.622 10.016 59.446 9.28 61.718 9.28C62.534 9.28 63.238 9.416 63.83 9.688L67.934 9.28L66.158 18.64C66.11 18.832 66.086 19.104 66.086 19.456C66.086 19.808 66.19 20.096 66.398 20.32C66.622 20.544 66.894 20.672 67.214 20.704C67.054 21.248 66.678 21.68 66.086 22C65.51 22.32 64.894 22.48 64.238 22.48C63.582 22.48 63.03 22.352 62.582 22.096C62.15 21.856 61.87 21.528 61.742 21.112C61.486 21.512 61.086 21.84 60.542 22.096C59.998 22.352 59.358 22.48 58.622 22.48C57.902 22.48 57.246 22.384 56.654 22.192C56.062 22 55.574 21.696 55.19 21.28ZM60.254 11.536C60.078 11.824 59.91 12.216 59.75 12.712C59.59 13.192 59.374 14.088 59.102 15.4C58.846 16.696 58.718 17.808 58.718 18.736C58.718 19.664 58.79 20.264 58.934 20.536C59.078 20.808 59.278 20.944 59.534 20.944C60.046 20.944 60.486 20.704 60.854 20.224C61.238 19.728 61.502 19.048 61.646 18.184L62.918 11.152C62.582 10.864 62.214 10.72 61.814 10.72C61.43 10.72 61.118 10.784 60.878 10.912C60.654 11.04 60.446 11.248 60.254 11.536ZM86.5083 22.48C84.5723 22.48 83.6043 21.728 83.6043 20.224C83.6043 19.568 83.7403 18.608 84.0123 17.344C84.3003 16.064 84.4923 15.168 84.5883 14.656C84.8123 13.488 84.9243 12.72 84.9243 12.352C84.9243 11.536 84.6203 11.128 84.0123 11.128C83.6123 11.128 83.2203 11.408 82.8363 11.968C82.4523 12.512 82.1723 13.336 81.9963 14.44L80.5083 22L75.8283 22.48L77.1243 15.952C77.2683 15.232 77.4043 14.464 77.5323 13.648C77.6603 12.832 77.7243 12.36 77.7243 12.232C77.7243 11.496 77.4523 11.128 76.9083 11.128C76.5403 11.128 76.1563 11.4 75.7563 11.944C75.3563 12.488 75.0443 13.32 74.8203 14.44L73.3563 22L68.6283 22.48L71.1483 9.76L75.0603 9.28L74.6523 11.704C75.0683 10.84 75.6603 10.224 76.4283 9.856C77.1963 9.472 78.1803 9.28 79.3803 9.28C80.0683 9.28 80.6363 9.448 81.0843 9.784C81.5323 10.12 81.8283 10.56 81.9723 11.104C82.2443 10.544 82.7243 10.104 83.4123 9.784C84.1163 9.448 84.8923 9.28 85.7403 9.28C86.6043 9.28 87.2443 9.376 87.6603 9.568C88.0923 9.744 88.4363 9.984 88.6923 10.288C89.1243 10.848 89.3403 11.64 89.3403 12.664C89.3403 13.672 89.1243 15.224 88.6923 17.32C88.4683 18.344 88.3563 19.048 88.3563 19.432C88.3563 19.8 88.4603 20.096 88.6683 20.32C88.8923 20.544 89.1643 20.672 89.4843 20.704C89.3243 21.248 88.9643 21.68 88.4043 22C87.8603 22.32 87.2283 22.48 86.5083 22.48ZM101.05 17.944C101.45 18.216 101.65 18.656 101.65 19.264C101.65 19.856 101.498 20.344 101.194 20.728C100.89 21.112 100.49 21.432 99.9939 21.688C98.9699 22.216 97.9059 22.48 96.8019 22.48C95.6979 22.48 94.8179 22.36 94.1619 22.12C93.5219 21.88 92.9859 21.536 92.5539 21.088C91.7059 20.24 91.2819 19.04 91.2819 17.488C91.2819 15.072 91.9379 13.128 93.2499 11.656C94.6579 10.072 96.5859 9.28 99.0339 9.28C100.554 9.28 101.69 9.6 102.442 10.24C103.002 10.72 103.282 11.352 103.282 12.136C103.282 14.952 100.85 16.36 95.9859 16.36C95.9219 16.776 95.8899 17.16 95.8899 17.512C95.8899 18.248 96.0499 18.76 96.3699 19.048C96.7059 19.32 97.1779 19.456 97.7859 19.456C98.3939 19.456 99.0179 19.32 99.6579 19.048C100.314 18.76 100.778 18.392 101.05 17.944ZM96.1539 15.328C97.2899 15.328 98.1859 14.976 98.8419 14.272C99.4979 13.6 99.8259 12.728 99.8259 11.656C99.8259 11.288 99.7539 11.008 99.6099 10.816C99.4819 10.608 99.2819 10.504 99.0099 10.504C98.7379 10.504 98.4819 10.56 98.2419 10.672C98.0179 10.768 97.7859 10.992 97.5459 11.344C96.9539 12.144 96.4899 13.472 96.1539 15.328ZM111.279 13.576C111.503 12.984 111.615 12.432 111.615 11.92C111.615 10.976 111.231 10.504 110.463 10.504C110.063 10.504 109.695 10.688 109.359 11.056C109.039 11.408 108.879 11.808 108.879 12.256C108.879 12.576 109.007 12.864 109.263 13.12C109.631 13.472 110.287 13.936 111.231 14.512C112.175 15.088 112.823 15.616 113.175 16.096C113.543 16.56 113.727 17.12 113.727 17.776C113.727 18.416 113.567 19.032 113.247 19.624C112.943 20.216 112.511 20.72 111.951 21.136C110.751 22.032 109.191 22.48 107.271 22.48C106.231 22.48 105.311 22.208 104.511 21.664C103.711 21.136 103.311 20.56 103.311 19.936C103.311 19.312 103.535 18.816 103.983 18.448C104.447 18.08 105.015 17.896 105.687 17.896C106.359 17.896 106.903 18.024 107.319 18.28C107.111 18.808 107.007 19.248 107.007 19.6C107.007 20.656 107.455 21.184 108.351 21.184C108.735 21.184 109.055 21.064 109.311 20.824C109.567 20.584 109.695 20.256 109.695 19.84C109.695 19.024 109.007 18.184 107.631 17.32C106.511 16.584 105.823 16.072 105.567 15.784C105.135 15.272 104.919 14.696 104.919 14.056C104.919 13.416 105.071 12.792 105.375 12.184C105.679 11.576 106.111 11.056 106.671 10.624C107.839 9.728 109.439 9.28 111.471 9.28C112.511 9.28 113.335 9.488 113.943 9.904C114.567 10.32 114.879 10.88 114.879 11.584C114.879 12.288 114.663 12.84 114.231 13.24C113.815 13.64 113.223 13.84 112.455 13.84C111.927 13.84 111.535 13.752 111.279 13.576Z" fill="#62AF3B"/>
<path d="M115.055 22L119.399 6.16H124.415L125.519 15.208L129.983 6.16H134.183L134.615 18.016C134.679 19.584 135.095 20.608 135.863 21.088C135.687 21.408 135.343 21.72 134.831 22.024C134.319 22.328 133.719 22.48 133.031 22.48C132.359 22.48 131.823 22.384 131.423 22.192C131.023 22 130.711 21.744 130.487 21.424C130.087 20.848 129.887 20.008 129.887 18.904V11.488L125.159 22H122.183L120.503 11.224L117.815 22H115.055ZM137.924 21.28C137.556 20.864 137.284 20.328 137.108 19.672C136.948 19.016 136.868 18.152 136.868 17.08C136.868 16.008 137.052 14.984 137.42 14.008C137.788 13.032 138.308 12.192 138.98 11.488C140.356 10.016 142.18 9.28 144.452 9.28C145.268 9.28 145.972 9.416 146.564 9.688L150.668 9.28L148.892 18.64C148.844 18.832 148.82 19.104 148.82 19.456C148.82 19.808 148.924 20.096 149.132 20.32C149.356 20.544 149.628 20.672 149.948 20.704C149.788 21.248 149.412 21.68 148.82 22C148.244 22.32 147.628 22.48 146.972 22.48C146.316 22.48 145.764 22.352 145.316 22.096C144.884 21.856 144.604 21.528 144.476 21.112C144.22 21.512 143.82 21.84 143.276 22.096C142.732 22.352 142.092 22.48 141.356 22.48C140.636 22.48 139.98 22.384 139.388 22.192C138.796 22 138.308 21.696 137.924 21.28ZM142.988 11.536C142.812 11.824 142.644 12.216 142.484 12.712C142.324 13.192 142.108 14.088 141.836 15.4C141.58 16.696 141.452 17.808 141.452 18.736C141.452 19.664 141.524 20.264 141.668 20.536C141.812 20.808 142.012 20.944 142.268 20.944C142.78 20.944 143.22 20.704 143.588 20.224C143.972 19.728 144.236 19.048 144.38 18.184L145.652 11.152C145.316 10.864 144.948 10.72 144.548 10.72C144.164 10.72 143.852 10.784 143.612 10.912C143.388 11.04 143.18 11.248 142.988 11.536ZM159.475 15.256C160.051 14.232 160.339 13.2 160.339 12.16C160.339 11.472 160.091 11.128 159.595 11.128C159.211 11.128 158.819 11.456 158.419 12.112C158.003 12.768 157.731 13.52 157.603 14.368L156.355 22L151.387 22.48L153.835 9.76L157.795 9.28L157.363 11.704C158.147 10.088 159.419 9.28 161.179 9.28C162.107 9.28 162.819 9.52 163.315 10C163.827 10.48 164.083 11.216 164.083 12.208C164.083 13.184 163.755 13.984 163.099 14.608C162.459 15.232 161.587 15.544 160.483 15.544C160.003 15.544 159.667 15.448 159.475 15.256ZM170.67 10.624C171.534 9.728 172.878 9.28 174.702 9.28C175.71 9.28 176.486 9.552 177.03 10.096C177.59 10.624 177.87 11.384 177.87 12.376C177.87 13.352 177.59 14.192 177.03 14.896C176.486 15.584 175.702 16.072 174.678 16.36C174.758 16.68 174.854 17.008 174.966 17.344L175.302 18.304C175.606 19.12 175.878 19.672 176.118 19.96C176.358 20.248 176.638 20.44 176.958 20.536C176.782 21.192 176.374 21.696 175.734 22.048C175.222 22.336 174.614 22.48 173.91 22.48C171.846 22.48 170.678 20.888 170.406 17.704C170.358 17.256 170.334 16.808 170.334 16.36C171.134 16.136 171.814 15.648 172.374 14.896C172.934 14.144 173.214 13.328 173.214 12.448C173.214 11.568 172.902 11.128 172.278 11.128C171.83 11.128 171.43 11.376 171.078 11.872C170.726 12.368 170.47 13.04 170.31 13.888L168.726 22L163.878 22.48L167.238 5.2L172.062 4.72L171.51 7.576C171.27 8.92 170.99 9.936 170.67 10.624Z" fill="black"/>
<path d="M38.54 37C38.4733 37 38.4233 36.98 38.39 36.94C38.3567 36.9 38.3467 36.8467 38.36 36.78L39.75 30.23C39.7633 30.1567 39.7933 30.1 39.84 30.06C39.8933 30.02 39.9533 30 40.02 30H42.63C43.05 30 43.39 30.0833 43.65 30.25C43.9167 30.4167 44.1 30.6367 44.2 30.91C44.3067 31.1767 44.3267 31.47 44.26 31.79C44.1933 32.1033 44.0933 32.3633 43.96 32.57C43.8267 32.77 43.68 32.93 43.52 33.05C43.36 33.1633 43.2067 33.25 43.06 33.31C43.2933 33.47 43.4833 33.69 43.63 33.97C43.7767 34.25 43.8067 34.6 43.72 35.02C43.6467 35.3533 43.5133 35.6733 43.32 35.98C43.1267 36.28 42.86 36.5267 42.52 36.72C42.18 36.9067 41.75 37 41.23 37H38.54ZM39.07 36.4H41.23C41.7033 36.4 42.11 36.27 42.45 36.01C42.79 35.75 43.0033 35.42 43.09 35.02C43.1767 34.6133 43.13 34.2833 42.95 34.03C42.7767 33.77 42.4033 33.64 41.83 33.64H39.66L39.07 36.4ZM39.79 33.04H41.81C42.2833 33.04 42.6833 32.93 43.01 32.71C43.3367 32.49 43.5433 32.1833 43.63 31.79C43.7167 31.3967 43.6667 31.1 43.48 30.9C43.2933 30.7 42.96 30.6 42.48 30.6H40.31L39.79 33.04ZM46.8023 37.1C46.3756 37.1 46.0223 37.0033 45.7423 36.81C45.4689 36.6167 45.2789 36.3467 45.1723 36C45.0656 35.6533 45.0423 35.2533 45.1023 34.8C45.1156 34.7 45.1389 34.5667 45.1723 34.4C45.2123 34.2333 45.2456 34.1 45.2723 34C45.4056 33.5467 45.5989 33.1467 45.8523 32.8C46.1056 32.4533 46.4089 32.1833 46.7623 31.99C47.1223 31.7967 47.5189 31.7 47.9523 31.7C48.4189 31.7 48.7923 31.8033 49.0723 32.01C49.3523 32.2167 49.5389 32.5133 49.6323 32.9C49.7256 33.2867 49.7189 33.7467 49.6123 34.28L49.5823 34.43C49.5689 34.4967 49.5356 34.55 49.4823 34.59C49.4289 34.63 49.3689 34.65 49.3023 34.65H45.7423C45.7423 34.65 45.7389 34.6633 45.7323 34.69C45.7323 34.7167 45.7289 34.7367 45.7223 34.75C45.6756 35.05 45.6856 35.3367 45.7523 35.61C45.8189 35.8767 45.9489 36.0967 46.1423 36.27C46.3423 36.4367 46.6023 36.52 46.9223 36.52C47.2089 36.52 47.4556 36.4767 47.6623 36.39C47.8756 36.3033 48.0489 36.21 48.1823 36.11C48.3156 36.0033 48.4056 35.9233 48.4523 35.87C48.5323 35.7833 48.5889 35.7333 48.6223 35.72C48.6623 35.7 48.7189 35.69 48.7923 35.69H48.9523C49.0123 35.69 49.0589 35.71 49.0923 35.75C49.1256 35.7833 49.1356 35.83 49.1223 35.89C49.0956 35.9833 49.0189 36.1 48.8923 36.24C48.7723 36.3733 48.6056 36.5067 48.3923 36.64C48.1856 36.7733 47.9456 36.8833 47.6723 36.97C47.4056 37.0567 47.1156 37.1 46.8023 37.1ZM45.8623 34.09H49.0423L49.0523 34.05C49.1389 33.7167 49.1456 33.4167 49.0723 33.15C48.9989 32.8833 48.8556 32.6733 48.6423 32.52C48.4356 32.36 48.1656 32.28 47.8323 32.28C47.4989 32.28 47.1989 32.36 46.9323 32.52C46.6723 32.6733 46.4523 32.8833 46.2723 33.15C46.0923 33.4167 45.9589 33.7167 45.8723 34.05L45.8623 34.09ZM51.9617 37.1C51.6151 37.1 51.3251 37.0533 51.0917 36.96C50.8651 36.8667 50.6851 36.7567 50.5517 36.63C50.4184 36.4967 50.3284 36.3667 50.2817 36.24C50.2351 36.1133 50.2151 36.0167 50.2217 35.95C50.2351 35.8767 50.2684 35.8233 50.3217 35.79C50.3817 35.75 50.4351 35.73 50.4817 35.73H50.6317C50.6717 35.73 50.7051 35.7367 50.7317 35.75C50.7651 35.7633 50.7951 35.8 50.8217 35.86C50.8817 35.9733 50.9584 36.0833 51.0517 36.19C51.1451 36.29 51.2717 36.37 51.4317 36.43C51.5984 36.49 51.8151 36.52 52.0817 36.52C52.4817 36.52 52.8284 36.4433 53.1217 36.29C53.4151 36.1367 53.5951 35.91 53.6617 35.61C53.7017 35.4233 53.6784 35.2733 53.5917 35.16C53.5117 35.0467 53.3584 34.9467 53.1317 34.86C52.9051 34.7733 52.5917 34.6833 52.1917 34.59C51.7917 34.49 51.4951 34.37 51.3017 34.23C51.1151 34.09 50.9984 33.93 50.9517 33.75C50.9117 33.5633 50.9151 33.3633 50.9617 33.15C51.0151 32.9167 51.1284 32.69 51.3017 32.47C51.4817 32.2433 51.7184 32.06 52.0117 31.92C52.3117 31.7733 52.6617 31.7 53.0617 31.7C53.3884 31.7 53.6584 31.7433 53.8717 31.83C54.0851 31.9167 54.2517 32.0233 54.3717 32.15C54.4917 32.27 54.5717 32.39 54.6117 32.51C54.6584 32.63 54.6751 32.7267 54.6617 32.8C54.6551 32.8667 54.6251 32.92 54.5717 32.96C54.5184 33 54.4617 33.02 54.4017 33.02H54.2517C54.1984 33.02 54.1551 33.01 54.1217 32.99C54.0951 32.9633 54.0751 32.93 54.0617 32.89C54.0151 32.7833 53.9551 32.6833 53.8817 32.59C53.8084 32.4967 53.6984 32.4233 53.5517 32.37C53.4117 32.31 53.2084 32.28 52.9417 32.28C52.5417 32.28 52.2251 32.3633 51.9917 32.53C51.7651 32.69 51.6251 32.8967 51.5717 33.15C51.5384 33.2967 51.5484 33.4267 51.6017 33.54C51.6617 33.6467 51.7917 33.7467 51.9917 33.84C52.1917 33.9267 52.4917 34.02 52.8917 34.12C53.2984 34.2133 53.6117 34.33 53.8317 34.47C54.0517 34.6033 54.1917 34.7633 54.2517 34.95C54.3184 35.1367 54.3251 35.3567 54.2717 35.61C54.2184 35.8767 54.0917 36.1233 53.8917 36.35C53.6917 36.5767 53.4284 36.76 53.1017 36.9C52.7751 37.0333 52.3951 37.1 51.9617 37.1ZM56.9136 37C56.4803 37 56.1736 36.9267 55.9936 36.78C55.8203 36.6333 55.7269 36.4333 55.7136 36.18C55.7069 35.9267 55.7369 35.6433 55.8036 35.33L56.4336 32.38H55.6536C55.5869 32.38 55.5369 32.36 55.5036 32.32C55.4703 32.28 55.4603 32.2267 55.4736 32.16L55.5036 32.02C55.5169 31.9533 55.5469 31.9 55.5936 31.86C55.6469 31.82 55.7069 31.8 55.7736 31.8H56.5536L56.9136 30.12C56.9269 30.0533 56.9569 30 57.0036 29.96C57.0503 29.92 57.1069 29.9 57.1736 29.9H57.3436C57.4103 29.9 57.4603 29.92 57.4936 29.96C57.5269 30 57.5369 30.0533 57.5236 30.12L57.1636 31.8H58.4036C58.4703 31.8 58.5169 31.82 58.5436 31.86C58.5769 31.9 58.5869 31.9533 58.5736 32.02L58.5436 32.16C58.5303 32.2267 58.5003 32.28 58.4536 32.32C58.4069 32.36 58.3503 32.38 58.2836 32.38H57.0436L56.4236 35.29C56.3769 35.5233 56.3436 35.7267 56.3236 35.9C56.3103 36.0667 56.3436 36.1967 56.4236 36.29C56.5103 36.3767 56.6769 36.42 56.9236 36.42H57.5236C57.5903 36.42 57.6369 36.44 57.6636 36.48C57.6969 36.52 57.7069 36.5733 57.6936 36.64L57.6636 36.78C57.6503 36.8467 57.6203 36.9 57.5736 36.94C57.5269 36.98 57.4703 37 57.4036 37H56.9136ZM61.6262 37C61.5595 37 61.5062 36.98 61.4662 36.94C61.4328 36.9 61.4228 36.8467 61.4362 36.78L62.8262 30.23C62.8395 30.1567 62.8728 30.1 62.9262 30.06C62.9795 30.02 63.0395 30 63.1062 30H63.3662C63.4328 30 63.4795 30.0167 63.5062 30.05C63.5328 30.0833 63.5495 30.11 63.5562 30.13L64.8862 34.55L68.1062 30.13C68.1195 30.11 68.1428 30.0833 68.1762 30.05C68.2162 30.0167 68.2695 30 68.3362 30H68.5862C68.6595 30 68.7095 30.02 68.7362 30.06C68.7695 30.1 68.7795 30.1567 68.7662 30.23L67.3762 36.78C67.3628 36.8467 67.3328 36.9 67.2862 36.94C67.2395 36.98 67.1795 37 67.1062 37H66.9162C66.8495 37 66.7995 36.98 66.7662 36.94C66.7328 36.9 66.7228 36.8467 66.7362 36.78L67.8562 31.52L65.2362 35.12C65.1895 35.18 65.1395 35.23 65.0862 35.27C65.0328 35.3033 64.9662 35.32 64.8862 35.32H64.6762C64.5962 35.32 64.5362 35.3033 64.4962 35.27C64.4562 35.2367 64.4262 35.1867 64.4062 35.12L63.2462 31.26L62.0762 36.78C62.0628 36.8467 62.0328 36.9 61.9862 36.94C61.9395 36.98 61.8828 37 61.8162 37H61.6262ZM70.9782 37.1C70.5915 37.1 70.2782 37.03 70.0382 36.89C69.7982 36.75 69.6182 36.5633 69.4982 36.33C69.3782 36.0967 69.3049 35.8367 69.2782 35.55C69.2582 35.2633 69.2715 34.9733 69.3182 34.68C69.3315 34.58 69.3482 34.4867 69.3682 34.4C69.3882 34.3133 69.4115 34.22 69.4382 34.12C69.5115 33.8267 69.6115 33.54 69.7382 33.26C69.8649 32.9733 70.0282 32.7133 70.2282 32.48C70.4282 32.24 70.6749 32.05 70.9682 31.91C71.2615 31.77 71.6082 31.7 72.0082 31.7C72.4482 31.7 72.7782 31.7767 72.9982 31.93C73.2182 32.0833 73.3849 32.27 73.4982 32.49L73.5982 32.02C73.6115 31.9533 73.6415 31.9 73.6882 31.86C73.7349 31.82 73.7915 31.8 73.8582 31.8H74.0282C74.0949 31.8 74.1449 31.82 74.1782 31.86C74.2115 31.9 74.2215 31.9533 74.2082 32.02L73.1982 36.78C73.1849 36.8467 73.1549 36.9 73.1082 36.94C73.0615 36.98 73.0049 37 72.9382 37H72.7682C72.7015 37 72.6515 36.98 72.6182 36.94C72.5849 36.9 72.5749 36.8467 72.5882 36.78L72.6882 36.31C72.4815 36.5367 72.2549 36.7267 72.0082 36.88C71.7615 37.0267 71.4182 37.1 70.9782 37.1ZM70.9782 36.52C71.3582 36.52 71.6882 36.43 71.9682 36.25C72.2482 36.07 72.4749 35.8467 72.6482 35.58C72.8282 35.3067 72.9515 35.0333 73.0182 34.76C73.0449 34.66 73.0749 34.53 73.1082 34.37C73.1415 34.21 73.1682 34.08 73.1882 33.98C73.2415 33.7133 73.2449 33.45 73.1982 33.19C73.1515 32.93 73.0349 32.7133 72.8482 32.54C72.6615 32.3667 72.3815 32.28 72.0082 32.28C71.6482 32.28 71.3382 32.3667 71.0782 32.54C70.8249 32.7133 70.6149 32.94 70.4482 33.22C70.2815 33.5 70.1515 33.8 70.0582 34.12C70.0315 34.22 70.0082 34.3133 69.9882 34.4C69.9682 34.4867 69.9515 34.58 69.9382 34.68C69.8915 35 69.8782 35.3 69.8982 35.58C69.9249 35.86 70.0215 36.0867 70.1882 36.26C70.3549 36.4333 70.6182 36.52 70.9782 36.52ZM76.5816 37C76.1482 37 75.8416 36.9267 75.6616 36.78C75.4882 36.6333 75.3949 36.4333 75.3816 36.18C75.3749 35.9267 75.4049 35.6433 75.4716 35.33L76.1016 32.38H75.3216C75.2549 32.38 75.2049 32.36 75.1716 32.32C75.1382 32.28 75.1282 32.2267 75.1416 32.16L75.1716 32.02C75.1849 31.9533 75.2149 31.9 75.2616 31.86C75.3149 31.82 75.3749 31.8 75.4416 31.8H76.2216L76.5816 30.12C76.5949 30.0533 76.6249 30 76.6716 29.96C76.7182 29.92 76.7749 29.9 76.8416 29.9H77.0116C77.0782 29.9 77.1282 29.92 77.1616 29.96C77.1949 30 77.2049 30.0533 77.1916 30.12L76.8316 31.8H78.0716C78.1382 31.8 78.1849 31.82 78.2116 31.86C78.2449 31.9 78.2549 31.9533 78.2416 32.02L78.2116 32.16C78.1982 32.2267 78.1682 32.28 78.1216 32.32C78.0749 32.36 78.0182 32.38 77.9516 32.38H76.7116L76.0916 35.29C76.0449 35.5233 76.0116 35.7267 75.9916 35.9C75.9782 36.0667 76.0116 36.1967 76.0916 36.29C76.1782 36.3767 76.3449 36.42 76.5916 36.42H77.1916C77.2582 36.42 77.3049 36.44 77.3316 36.48C77.3649 36.52 77.3749 36.5733 77.3616 36.64L77.3316 36.78C77.3182 36.8467 77.2882 36.9 77.2416 36.94C77.1949 36.98 77.1382 37 77.0716 37H76.5816ZM80.2874 37.1C79.8541 37.1 79.4874 37.01 79.1874 36.83C78.8941 36.6433 78.6841 36.3767 78.5574 36.03C78.4374 35.6833 78.4208 35.2733 78.5074 34.8C78.5274 34.7 78.5541 34.5667 78.5874 34.4C78.6208 34.2333 78.6508 34.1 78.6774 34C78.8508 33.2867 79.1574 32.7267 79.5974 32.32C80.0374 31.9067 80.6108 31.7 81.3174 31.7C81.6841 31.7 81.9874 31.75 82.2274 31.85C82.4674 31.95 82.6541 32.0833 82.7874 32.25C82.9274 32.4167 83.0208 32.5967 83.0674 32.79C83.1141 32.9767 83.1274 33.16 83.1074 33.34C83.1008 33.4067 83.0774 33.46 83.0374 33.5C83.0041 33.54 82.9574 33.56 82.8974 33.56H82.7074C82.6408 33.56 82.5874 33.5467 82.5474 33.52C82.5141 33.4867 82.5008 33.43 82.5074 33.35C82.5208 32.97 82.4174 32.6967 82.1974 32.53C81.9841 32.3633 81.6908 32.28 81.3174 32.28C80.8641 32.28 80.4474 32.42 80.0674 32.7C79.6941 32.9733 79.4308 33.4233 79.2774 34.05C79.2508 34.15 79.2241 34.2667 79.1974 34.4C79.1708 34.5333 79.1474 34.65 79.1274 34.75C79.0208 35.3767 79.0741 35.83 79.2874 36.11C79.5008 36.3833 79.8341 36.52 80.2874 36.52C80.6408 36.52 80.9708 36.4467 81.2774 36.3C81.5908 36.1467 81.8441 35.88 82.0374 35.5C82.0841 35.4133 82.1241 35.3567 82.1574 35.33C82.1908 35.3033 82.2408 35.29 82.3074 35.29H82.4874C82.5474 35.29 82.5908 35.31 82.6174 35.35C82.6508 35.39 82.6574 35.4433 82.6374 35.51C82.5841 35.69 82.4974 35.8733 82.3774 36.06C82.2574 36.2467 82.1008 36.42 81.9074 36.58C81.7208 36.7333 81.4908 36.86 81.2174 36.96C80.9508 37.0533 80.6408 37.1 80.2874 37.1ZM83.869 37C83.8023 37 83.7523 36.98 83.719 36.94C83.6857 36.9 83.6757 36.8467 83.689 36.78L85.109 30.12C85.1223 30.0533 85.1523 30 85.199 29.96C85.2457 29.92 85.3023 29.9 85.369 29.9H85.539C85.6057 29.9 85.6557 29.92 85.689 29.96C85.7223 30 85.7323 30.0533 85.719 30.12L85.209 32.49C85.4157 32.2567 85.6523 32.0667 85.919 31.92C86.1923 31.7733 86.5357 31.7 86.949 31.7C87.4223 31.7 87.7957 31.8 88.069 32C88.349 32.1933 88.5357 32.46 88.629 32.8C88.7223 33.1333 88.7223 33.5133 88.629 33.94L88.019 36.78C88.0057 36.8467 87.9757 36.9 87.929 36.94C87.8823 36.98 87.8257 37 87.759 37H87.589C87.5223 37 87.4723 36.98 87.439 36.94C87.4057 36.9 87.3957 36.8467 87.409 36.78L87.999 33.99C88.1123 33.4567 88.089 33.04 87.929 32.74C87.7757 32.4333 87.449 32.28 86.949 32.28C86.6357 32.28 86.3357 32.35 86.049 32.49C85.7623 32.6233 85.5157 32.8167 85.309 33.07C85.109 33.3233 84.969 33.63 84.889 33.99L84.299 36.78C84.2857 36.8467 84.2557 36.9 84.209 36.94C84.1623 36.98 84.1057 37 84.039 37H83.869ZM91.5972 37.1C91.1705 37.1 90.8172 37.0033 90.5372 36.81C90.2639 36.6167 90.0739 36.3467 89.9672 36C89.8605 35.6533 89.8372 35.2533 89.8972 34.8C89.9105 34.7 89.9339 34.5667 89.9672 34.4C90.0072 34.2333 90.0405 34.1 90.0672 34C90.2005 33.5467 90.3939 33.1467 90.6472 32.8C90.9005 32.4533 91.2039 32.1833 91.5572 31.99C91.9172 31.7967 92.3139 31.7 92.7472 31.7C93.2139 31.7 93.5872 31.8033 93.8672 32.01C94.1472 32.2167 94.3339 32.5133 94.4272 32.9C94.5205 33.2867 94.5139 33.7467 94.4072 34.28L94.3772 34.43C94.3639 34.4967 94.3305 34.55 94.2772 34.59C94.2239 34.63 94.1639 34.65 94.0972 34.65H90.5372C90.5372 34.65 90.5339 34.6633 90.5272 34.69C90.5272 34.7167 90.5239 34.7367 90.5172 34.75C90.4705 35.05 90.4805 35.3367 90.5472 35.61C90.6139 35.8767 90.7439 36.0967 90.9372 36.27C91.1372 36.4367 91.3972 36.52 91.7172 36.52C92.0039 36.52 92.2505 36.4767 92.4572 36.39C92.6705 36.3033 92.8439 36.21 92.9772 36.11C93.1105 36.0033 93.2005 35.9233 93.2472 35.87C93.3272 35.7833 93.3839 35.7333 93.4172 35.72C93.4572 35.7 93.5139 35.69 93.5872 35.69H93.7472C93.8072 35.69 93.8539 35.71 93.8872 35.75C93.9205 35.7833 93.9305 35.83 93.9172 35.89C93.8905 35.9833 93.8139 36.1 93.6872 36.24C93.5672 36.3733 93.4005 36.5067 93.1872 36.64C92.9805 36.7733 92.7405 36.8833 92.4672 36.97C92.2005 37.0567 91.9105 37.1 91.5972 37.1ZM90.6572 34.09H93.8372L93.8472 34.05C93.9339 33.7167 93.9405 33.4167 93.8672 33.15C93.7939 32.8833 93.6505 32.6733 93.4372 32.52C93.2305 32.36 92.9605 32.28 92.6272 32.28C92.2939 32.28 91.9939 32.36 91.7272 32.52C91.4672 32.6733 91.2472 32.8833 91.0672 33.15C90.8872 33.4167 90.7539 33.7167 90.6672 34.05L90.6572 34.09ZM96.7566 37.1C96.41 37.1 96.12 37.0533 95.8866 36.96C95.66 36.8667 95.48 36.7567 95.3466 36.63C95.2133 36.4967 95.1233 36.3667 95.0766 36.24C95.03 36.1133 95.01 36.0167 95.0166 35.95C95.03 35.8767 95.0633 35.8233 95.1166 35.79C95.1766 35.75 95.23 35.73 95.2766 35.73H95.4266C95.4666 35.73 95.5 35.7367 95.5266 35.75C95.56 35.7633 95.59 35.8 95.6166 35.86C95.6766 35.9733 95.7533 36.0833 95.8466 36.19C95.94 36.29 96.0666 36.37 96.2266 36.43C96.3933 36.49 96.61 36.52 96.8766 36.52C97.2766 36.52 97.6233 36.4433 97.9166 36.29C98.21 36.1367 98.39 35.91 98.4566 35.61C98.4966 35.4233 98.4733 35.2733 98.3866 35.16C98.3066 35.0467 98.1533 34.9467 97.9266 34.86C97.7 34.7733 97.3866 34.6833 96.9866 34.59C96.5866 34.49 96.29 34.37 96.0966 34.23C95.91 34.09 95.7933 33.93 95.7466 33.75C95.7066 33.5633 95.71 33.3633 95.7566 33.15C95.81 32.9167 95.9233 32.69 96.0966 32.47C96.2766 32.2433 96.5133 32.06 96.8066 31.92C97.1066 31.7733 97.4566 31.7 97.8566 31.7C98.1833 31.7 98.4533 31.7433 98.6666 31.83C98.88 31.9167 99.0466 32.0233 99.1666 32.15C99.2866 32.27 99.3666 32.39 99.4066 32.51C99.4533 32.63 99.47 32.7267 99.4566 32.8C99.45 32.8667 99.42 32.92 99.3666 32.96C99.3133 33 99.2566 33.02 99.1966 33.02H99.0466C98.9933 33.02 98.95 33.01 98.9166 32.99C98.89 32.9633 98.87 32.93 98.8566 32.89C98.81 32.7833 98.75 32.6833 98.6766 32.59C98.6033 32.4967 98.4933 32.4233 98.3466 32.37C98.2066 32.31 98.0033 32.28 97.7366 32.28C97.3366 32.28 97.02 32.3633 96.7866 32.53C96.56 32.69 96.42 32.8967 96.3666 33.15C96.3333 33.2967 96.3433 33.4267 96.3966 33.54C96.4566 33.6467 96.5866 33.7467 96.7866 33.84C96.9866 33.9267 97.2866 34.02 97.6866 34.12C98.0933 34.2133 98.4066 34.33 98.6266 34.47C98.8466 34.6033 98.9866 34.7633 99.0466 34.95C99.1133 35.1367 99.12 35.3567 99.0666 35.61C99.0133 35.8767 98.8866 36.1233 98.6866 36.35C98.4866 36.5767 98.2233 36.76 97.8966 36.9C97.57 37.0333 97.19 37.1 96.7566 37.1ZM102.905 37C102.839 37 102.789 36.98 102.755 36.94C102.722 36.9 102.712 36.8467 102.725 36.78L104.115 30.23C104.129 30.1567 104.159 30.1 104.205 30.06C104.259 30.02 104.319 30 104.385 30H108.285C108.359 30 108.409 30.02 108.435 30.06C108.469 30.1 108.479 30.1567 108.465 30.23L108.435 30.38C108.422 30.4467 108.392 30.5 108.345 30.54C108.299 30.58 108.239 30.6 108.165 30.6H104.675L104.125 33.15H107.395C107.469 33.15 107.519 33.17 107.545 33.21C107.579 33.25 107.589 33.3067 107.575 33.38L107.545 33.53C107.532 33.5967 107.502 33.65 107.455 33.69C107.409 33.73 107.349 33.75 107.275 33.75H104.005L103.435 36.4H107.005C107.079 36.4 107.129 36.42 107.155 36.46C107.189 36.5 107.199 36.5567 107.185 36.63L107.155 36.78C107.142 36.8467 107.112 36.9 107.065 36.94C107.019 36.98 106.959 37 106.885 37H102.905ZM110.037 37C109.931 37 109.857 36.9767 109.817 36.93C109.777 36.8833 109.751 36.8233 109.737 36.75L108.887 32.04C108.874 31.9533 108.887 31.8933 108.927 31.86C108.974 31.82 109.024 31.8 109.077 31.8H109.267C109.327 31.8 109.377 31.8167 109.417 31.85C109.457 31.8767 109.484 31.9333 109.497 32.02L110.257 36.27L112.867 31.95C112.881 31.9233 112.907 31.8933 112.947 31.86C112.994 31.82 113.051 31.8 113.117 31.8H113.357C113.417 31.8 113.464 31.83 113.497 31.89C113.537 31.9433 113.527 32.0167 113.467 32.11L110.647 36.75C110.601 36.8233 110.547 36.8833 110.487 36.93C110.434 36.9767 110.354 37 110.247 37H110.037ZM115.503 37.1C115.077 37.1 114.723 37.0033 114.443 36.81C114.17 36.6167 113.98 36.3467 113.873 36C113.767 35.6533 113.743 35.2533 113.803 34.8C113.817 34.7 113.84 34.5667 113.873 34.4C113.913 34.2333 113.947 34.1 113.973 34C114.107 33.5467 114.3 33.1467 114.553 32.8C114.807 32.4533 115.11 32.1833 115.463 31.99C115.823 31.7967 116.22 31.7 116.653 31.7C117.12 31.7 117.493 31.8033 117.773 32.01C118.053 32.2167 118.24 32.5133 118.333 32.9C118.427 33.2867 118.42 33.7467 118.313 34.28L118.283 34.43C118.27 34.4967 118.237 34.55 118.183 34.59C118.13 34.63 118.07 34.65 118.003 34.65H114.443C114.443 34.65 114.44 34.6633 114.433 34.69C114.433 34.7167 114.43 34.7367 114.423 34.75C114.377 35.05 114.387 35.3367 114.453 35.61C114.52 35.8767 114.65 36.0967 114.843 36.27C115.043 36.4367 115.303 36.52 115.623 36.52C115.91 36.52 116.157 36.4767 116.363 36.39C116.577 36.3033 116.75 36.21 116.883 36.11C117.017 36.0033 117.107 35.9233 117.153 35.87C117.233 35.7833 117.29 35.7333 117.323 35.72C117.363 35.7 117.42 35.69 117.493 35.69H117.653C117.713 35.69 117.76 35.71 117.793 35.75C117.827 35.7833 117.837 35.83 117.823 35.89C117.797 35.9833 117.72 36.1 117.593 36.24C117.473 36.3733 117.307 36.5067 117.093 36.64C116.887 36.7733 116.647 36.8833 116.373 36.97C116.107 37.0567 115.817 37.1 115.503 37.1ZM114.563 34.09H117.743L117.753 34.05C117.84 33.7167 117.847 33.4167 117.773 33.15C117.7 32.8833 117.557 32.6733 117.343 32.52C117.137 32.36 116.867 32.28 116.533 32.28C116.2 32.28 115.9 32.36 115.633 32.52C115.373 32.6733 115.153 32.8833 114.973 33.15C114.793 33.4167 114.66 33.7167 114.573 34.05L114.563 34.09ZM119.123 37C119.056 37 119.006 36.98 118.973 36.94C118.94 36.9 118.93 36.8467 118.943 36.78L119.953 32.03C119.966 31.9633 119.996 31.91 120.043 31.87C120.096 31.8233 120.156 31.8 120.223 31.8H120.383C120.45 31.8 120.5 31.8233 120.533 31.87C120.566 31.91 120.576 31.9633 120.563 32.03L120.463 32.49C120.616 32.2567 120.823 32.0833 121.083 31.97C121.343 31.8567 121.64 31.8 121.973 31.8H122.343C122.41 31.8 122.456 31.82 122.483 31.86C122.516 31.9 122.526 31.9533 122.513 32.02L122.483 32.16C122.47 32.2267 122.44 32.28 122.393 32.32C122.346 32.36 122.29 32.38 122.223 32.38H121.793C121.393 32.38 121.05 32.4967 120.763 32.73C120.483 32.9633 120.3 33.28 120.213 33.68L119.553 36.78C119.54 36.8467 119.506 36.9 119.453 36.94C119.406 36.98 119.35 37 119.283 37H119.123ZM125.151 37C125.085 37 125.035 36.98 125.001 36.94C124.968 36.9 124.958 36.8467 124.971 36.78L126.361 30.23C126.375 30.1567 126.405 30.1 126.451 30.06C126.505 30.02 126.565 30 126.631 30H130.531C130.605 30 130.655 30.02 130.681 30.06C130.715 30.1 130.725 30.1567 130.711 30.23L130.681 30.38C130.668 30.4467 130.638 30.5 130.591 30.54C130.545 30.58 130.485 30.6 130.411 30.6H126.921L126.371 33.15H129.641C129.715 33.15 129.765 33.17 129.791 33.21C129.825 33.25 129.835 33.3067 129.821 33.38L129.791 33.53C129.778 33.5967 129.748 33.65 129.701 33.69C129.655 33.73 129.595 33.75 129.521 33.75H126.251L125.681 36.4H129.251C129.325 36.4 129.375 36.42 129.401 36.46C129.435 36.5 129.445 36.5567 129.431 36.63L129.401 36.78C129.388 36.8467 129.358 36.9 129.311 36.94C129.265 36.98 129.205 37 129.131 37H125.151ZM130.49 37C130.403 37 130.343 36.96 130.31 36.88C130.27 36.8 130.283 36.7267 130.35 36.66L132.65 34.34L131.39 32.11C131.356 32.05 131.353 31.9833 131.38 31.91C131.406 31.8367 131.463 31.8 131.55 31.8H131.74C131.806 31.8 131.856 31.8167 131.89 31.85C131.93 31.8833 131.96 31.9167 131.98 31.95L133.1 33.94L135.08 31.95C135.113 31.9167 135.15 31.8833 135.19 31.85C135.236 31.8167 135.31 31.8 135.41 31.8H135.57C135.643 31.7933 135.703 31.83 135.75 31.91C135.796 31.99 135.78 32.07 135.7 32.15L133.41 34.47L134.65 36.69C134.69 36.7567 134.696 36.8267 134.67 36.9C134.65 36.9667 134.593 37 134.5 37H134.31C134.243 37 134.19 36.9833 134.15 36.95C134.11 36.9167 134.08 36.8833 134.06 36.85L132.95 34.88L131 36.85C130.973 36.8767 130.936 36.91 130.89 36.95C130.843 36.9833 130.77 37 130.67 37H130.49ZM136.096 37C136.029 37 135.979 36.98 135.946 36.94C135.912 36.9 135.902 36.8467 135.916 36.78L136.926 32.02C136.939 31.9533 136.969 31.9 137.016 31.86C137.069 31.82 137.129 31.8 137.196 31.8H137.366C137.432 31.8 137.479 31.82 137.506 31.86C137.539 31.9 137.549 31.9533 137.536 32.02L136.526 36.78C136.512 36.8467 136.482 36.9 136.436 36.94C136.389 36.98 136.332 37 136.266 37H136.096ZM137.316 30.73C137.249 30.73 137.199 30.71 137.166 30.67C137.139 30.63 137.129 30.5767 137.136 30.51L137.226 30.13C137.239 30.0633 137.269 30.01 137.316 29.97C137.362 29.9233 137.419 29.9 137.486 29.9H137.866C137.932 29.9 137.982 29.9233 138.016 29.97C138.056 30.01 138.069 30.0633 138.056 30.13L137.966 30.51C137.959 30.5767 137.929 30.63 137.876 30.67C137.822 30.71 137.762 30.73 137.696 30.73H137.316ZM139.872 37.1C139.525 37.1 139.235 37.0533 139.002 36.96C138.775 36.8667 138.595 36.7567 138.462 36.63C138.329 36.4967 138.239 36.3667 138.192 36.24C138.145 36.1133 138.125 36.0167 138.132 35.95C138.145 35.8767 138.179 35.8233 138.232 35.79C138.292 35.75 138.345 35.73 138.392 35.73H138.542C138.582 35.73 138.615 35.7367 138.642 35.75C138.675 35.7633 138.705 35.8 138.732 35.86C138.792 35.9733 138.869 36.0833 138.962 36.19C139.055 36.29 139.182 36.37 139.342 36.43C139.509 36.49 139.725 36.52 139.992 36.52C140.392 36.52 140.739 36.4433 141.032 36.29C141.325 36.1367 141.505 35.91 141.572 35.61C141.612 35.4233 141.589 35.2733 141.502 35.16C141.422 35.0467 141.269 34.9467 141.042 34.86C140.815 34.7733 140.502 34.6833 140.102 34.59C139.702 34.49 139.405 34.37 139.212 34.23C139.025 34.09 138.909 33.93 138.862 33.75C138.822 33.5633 138.825 33.3633 138.872 33.15C138.925 32.9167 139.039 32.69 139.212 32.47C139.392 32.2433 139.629 32.06 139.922 31.92C140.222 31.7733 140.572 31.7 140.972 31.7C141.299 31.7 141.569 31.7433 141.782 31.83C141.995 31.9167 142.162 32.0233 142.282 32.15C142.402 32.27 142.482 32.39 142.522 32.51C142.569 32.63 142.585 32.7267 142.572 32.8C142.565 32.8667 142.535 32.92 142.482 32.96C142.429 33 142.372 33.02 142.312 33.02H142.162C142.109 33.02 142.065 33.01 142.032 32.99C142.005 32.9633 141.985 32.93 141.972 32.89C141.925 32.7833 141.865 32.6833 141.792 32.59C141.719 32.4967 141.609 32.4233 141.462 32.37C141.322 32.31 141.119 32.28 140.852 32.28C140.452 32.28 140.135 32.3633 139.902 32.53C139.675 32.69 139.535 32.8967 139.482 33.15C139.449 33.2967 139.459 33.4267 139.512 33.54C139.572 33.6467 139.702 33.7467 139.902 33.84C140.102 33.9267 140.402 34.02 140.802 34.12C141.209 34.2133 141.522 34.33 141.742 34.47C141.962 34.6033 142.102 34.7633 142.162 34.95C142.229 35.1367 142.235 35.3567 142.182 35.61C142.129 35.8767 142.002 36.1233 141.802 36.35C141.602 36.5767 141.339 36.76 141.012 36.9C140.685 37.0333 140.305 37.1 139.872 37.1ZM144.824 37C144.39 37 144.084 36.9267 143.904 36.78C143.73 36.6333 143.637 36.4333 143.624 36.18C143.617 35.9267 143.647 35.6433 143.714 35.33L144.344 32.38H143.564C143.497 32.38 143.447 32.36 143.414 32.32C143.38 32.28 143.37 32.2267 143.384 32.16L143.414 32.02C143.427 31.9533 143.457 31.9 143.504 31.86C143.557 31.82 143.617 31.8 143.684 31.8H144.464L144.824 30.12C144.837 30.0533 144.867 30 144.914 29.96C144.96 29.92 145.017 29.9 145.084 29.9H145.254C145.32 29.9 145.37 29.92 145.404 29.96C145.437 30 145.447 30.0533 145.434 30.12L145.074 31.8H146.314C146.38 31.8 146.427 31.82 146.454 31.86C146.487 31.9 146.497 31.9533 146.484 32.02L146.454 32.16C146.44 32.2267 146.41 32.28 146.364 32.32C146.317 32.36 146.26 32.38 146.194 32.38H144.954L144.334 35.29C144.287 35.5233 144.254 35.7267 144.234 35.9C144.22 36.0667 144.254 36.1967 144.334 36.29C144.42 36.3767 144.587 36.42 144.834 36.42H145.434C145.5 36.42 145.547 36.44 145.574 36.48C145.607 36.52 145.617 36.5733 145.604 36.64L145.574 36.78C145.56 36.8467 145.53 36.9 145.484 36.94C145.437 36.98 145.38 37 145.314 37H144.824Z" fill="#374151"/>
</svg>
